<?xml version="1.0" encoding="UTF-8" standalone="no"?>
<!-- Created with Inkscape (http://www.inkscape.org/) -->

<svg
   version="1.1"
   id="svg1"
   width="1587.2"
   height="1122.5601"
   viewBox="0 0 1587.2 1122.5601"
   sodipodi:docname="booleanlogo.svg"
   xml:space="preserve"
   inkscape:version="1.3.2 (091e20e, 2023-11-25, custom)"
   xmlns:inkscape="http://www.inkscape.org/namespaces/inkscape"
   xmlns:sodipodi="http://sodipodi.sourceforge.net/DTD/sodipodi-0.dtd"
   xmlns="http://www.w3.org/2000/svg"
   xmlns:svg="http://www.w3.org/2000/svg"><defs
     id="defs1" /><sodipodi:namedview
     id="namedview1"
     pagecolor="#ffffff"
     bordercolor="#000000"
     borderopacity="0.25"
     inkscape:showpageshadow="2"
     inkscape:pageopacity="0.0"
     inkscape:pagecheckerboard="0"
     inkscape:deskcolor="#d1d1d1"
     showgrid="true"
     inkscape:zoom="0.3247858"
     inkscape:cx="1294.6995"
     inkscape:cy="768.19861"
     inkscape:window-width="1920"
     inkscape:window-height="991"
     inkscape:window-x="-9"
     inkscape:window-y="-9"
     inkscape:window-maximized="1"
     inkscape:current-layer="g1"><inkscape:grid
       id="grid7"
       units="px"
       originx="0"
       originy="0"
       spacingx="1"
       spacingy="1"
       empcolor="#0099e5"
       empopacity="0.30196078"
       color="#0099e5"
       opacity="0.14901961"
       empspacing="5"
       dotted="false"
       gridanglex="30"
       gridanglez="30"
       visible="true"
       snapvisiblegridlinesonly="true" /></sodipodi:namedview><g
     inkscape:groupmode="layer"
     inkscape:label="Image"
     id="g1"><path
       id="rect4"
       style="fill:#000000;stroke:#000000;stroke-width:0.492365;stroke-opacity:0;paint-order:stroke fill markers"
       d="M 41.365234,209.00586 V 927.46484 H 1552.3066 V 209.00586 Z m 712.728516,133.51367 46.77344,46.77539 -264.38086,207.0332 v 0.32813 l 217.00781,255.68164 -30.0625,30.0625 L 497.91016,626.53711 185.55078,871.14062 146.97852,832.56641 458.13477,581.41016 313.55859,417.38281 354.39453,382.11719 496.95117,550.07812 Z m -257.14258,207.55859 -1.81445,1.46485 h 3.05859 z m -38.8164,31.33204 0.8789,0.99804 v -1.70703 z m 39.77539,45.12695 0.30859,-0.24219 h -0.52148 z m 712.88864,-15.36523 c 14.4538,6e-4 26.1705,11.54584 26.17,25.7871 -6e-4,14.2405 -11.717,25.78456 -26.17,25.78516 -14.4537,3.8e-4 -26.1712,-11.54397 -26.1718,-25.78516 -5e-4,-14.24195 11.7173,-25.78748 26.1718,-25.7871 z m 87.6875,36.63281 c 23.7599,-0.21336 37.2735,14.94922 37.2735,14.94922 l -15.8379,25.95117 c 0,0 -18.0142,-16.26956 -26.8848,-7.87891 -1.2459,0.99945 -1.998,1.71835 -1.998,3.26172 h 0.01 l -0.01,0.004 v 35.88476 h 50.3398 v 31.17774 h -50.3398 v 94.39648 h -38.7871 l 0.1871,-162.67392 h 0.01 c 0.3349,-5.21899 3.4583,-25.99275 31.8066,-33.17773 5.0819,-1.28805 9.8325,-1.85502 14.2324,-1.89453 z m -133.7422,31.20508 -0.2168,21.6914 -0.058,5.91992 -0.061,6.07422 -0.1836,18.33789 c 0,0 -60.7959,-2.27313 -59.7461,2.91797 0.6333,3.13175 21.9406,15.5969 35.1016,25.90235 1.8285,1.43176 3.3292,2.83561 4.6445,4.18359 2.7175,1.55597 6.1863,3.67742 9.6074,6.32031 4.1033,3.16991 6.9998,7.18869 8.9239,9.19727 8.3653,16.54549 8.1404,33.70938 -3.6016,47.41797 -13.5538,14.73793 -23.1054,17.02022 -34.541,18.34765 -12.4453,1.44463 -65.0195,-0.14258 -65.0195,-0.14258 l 0.2304,-18.21484 0.062,-4.9707 0.064,-5.09961 0.1953,-15.40039 c 0,0 50.4753,3.59833 65.4707,2.08593 -11.0969,-6.53873 -30.668,-21.52343 -30.668,-21.52343 0,0 -1.3856,-0.99447 -2.0644,-1.46094 l -7.6816,-5.94141 c -1.0046,-0.87291 -2.0114,-1.77444 -2.9844,-2.72851 -3.8501,-3.77504 -6.5678,-8.56113 -8.373,-10.95313 -7.8493,-19.70404 -7.6387,-40.14519 3.3789,-56.4707 12.7171,-17.55142 21.68,-20.26877 32.4101,-21.84961 11.6774,-1.72041 55.1074,-3.64062 55.1074,-3.64062 z m 25.918,1.32226 h 38.7852 v 164.30469 h -38.7852 z m -188.8183,4.44141 h 38.8769 l -0.1504,120.60547 c -1.1987,15.50226 -12.4367,29.59607 -30.0762,37.42187 -18.68033,8.28787 -40.74318,8.28787 -59.42379,0 -17.87089,-7.92856 -29.16876,-22.29076 -30.11523,-38.0332 h -0.0176 v -0.26953 c -0.0328,-0.6237 -0.0547,-1.24934 -0.0547,-1.87696 0,0 0.0545,10e-6 0.0547,0 V 684.93555 h 37.65234 L 958.61915,805 c 0.52498,5.51315 2.7696,10.42165 8.94336,13.25391 7.14078,3.26898 15.9393,3.26898 23.08008,0 6.03188,-2.76655 10.09921,-7.51697 11.20901,-12.875 h -0.01 z m 38.842,117.84765 C 0,0 0,0 1040.6858,802.62109 Z M 860.39844,685.43359 h 38.80078 v 154.21875 h -38.80078 z m -21.00586,0.10743 v 38.92187 c -3.1604,-0.57492 -6.38044,-0.86616 -9.60938,-0.86914 -26.02983,-1.1e-4 -47.13116,18.33184 -47.13086,40.94531 9.4e-4,22.61271 21.10191,40.94347 47.13086,40.94336 3.23274,-0.0344 6.45282,-0.35775 9.60938,-0.96484 v 34.72461 c -34.30677,7.3e-4 -66.00801,-14.64636 -83.16211,-38.42383 -17.15369,-23.77792 -17.15369,-53.07364 0,-76.85156 17.15348,-23.77822 48.85483,-38.42611 83.16211,-38.42578 z"
       sodipodi:nodetypes="cccccccccccccccccccccccccccccccssssscccsccsccccccccsscccccsscsccscccccccccsccsccccccccccccccccccccccccccccccccccccccccccc" /><g
       id="g2"
       style="fill:#000000"
       inkscape:label="g2" /></g><g
     inkscape:groupmode="layer"
     id="layer1"
     inkscape:label="Image 1" /></svg>
