<?xml version="1.0" encoding="UTF-8" standalone="no"?>
<!-- Created with Inkscape (http://www.inkscape.org/) -->

<svg
   version="1.1"
   id="svg1"
   width="1587.2"
   height="1122.5601"
   viewBox="0 0 1587.2 1122.5601"
   sodipodi:docname="bocetoxclusif.svg"
   xml:space="preserve"
   inkscape:version="1.3.2 (091e20e, 2023-11-25, custom)"
   xmlns:inkscape="http://www.inkscape.org/namespaces/inkscape"
   xmlns:sodipodi="http://sodipodi.sourceforge.net/DTD/sodipodi-0.dtd"
   xmlns="http://www.w3.org/2000/svg"
   xmlns:svg="http://www.w3.org/2000/svg"><defs
     id="defs1" /><sodipodi:namedview
     id="namedview1"
     pagecolor="#ffffff"
     bordercolor="#000000"
     borderopacity="0.25"
     inkscape:showpageshadow="2"
     inkscape:pageopacity="0.0"
     inkscape:pagecheckerboard="0"
     inkscape:deskcolor="#d1d1d1"
     showgrid="true"
     inkscape:zoom="0.3247858"
     inkscape:cx="1029.9096"
     inkscape:cy="718.93538"
     inkscape:window-width="1920"
     inkscape:window-height="991"
     inkscape:window-x="-9"
     inkscape:window-y="-9"
     inkscape:window-maximized="1"
     inkscape:current-layer="g2"><inkscape:grid
       id="grid7"
       units="px"
       originx="0"
       originy="0"
       spacingx="1"
       spacingy="1"
       empcolor="#0099e5"
       empopacity="0.30196078"
       color="#0099e5"
       opacity="0.14901961"
       empspacing="5"
       dotted="false"
       gridanglex="30"
       gridanglez="30"
       visible="true"
       snapvisiblegridlinesonly="true" /></sodipodi:namedview><g
     inkscape:groupmode="layer"
     inkscape:label="Image"
     id="g1"><rect
       style="fill:#ffffff;stroke:#000000;stroke-width:0.492365;stroke-opacity:0;paint-order:stroke fill markers"
       id="rect4"
       width="38.799881"
       height="154.21977"
       x="860.39862"
       y="685.43298" /><rect
       style="fill:#ffffff;stroke:#000000;stroke-width:0.508105;stroke-opacity:0;paint-order:stroke fill markers"
       id="rect4-8"
       width="38.784142"
       height="164.30402"
       x="1190.6624"
       y="680.33179" /><rect
       style="fill:#ffffff;stroke:#000000;stroke-width:0.505594;stroke-opacity:0;paint-order:stroke fill markers"
       id="rect4-8-5"
       width="38.786652"
       height="162.67366"
       x="1252.2528"
       y="682.87781" /><rect
       style="fill:#ffffff;stroke:#000000;stroke-width:0.28322;stroke-opacity:0;paint-order:stroke fill markers"
       id="rect4-8-5-1"
       width="63.501942"
       height="31.178574"
       x="1277.8772"
       y="719.97595" /><path
       id="path4"
       style="fill:#ffffff;stroke:#000000;stroke-width:0.540597;stroke-opacity:0;paint-order:stroke fill markers"
       d="m 839.39206,685.54181 a 96.025717,76.850844 0 0 0 -83.16107,38.42405 96.025717,76.850844 0 0 0 0,76.85181 96.025717,76.850844 0 0 0 83.16107,38.42404 v -34.72327 a 47.130637,40.944838 0 0 1 -9.60889,0.96454 47.130637,40.944838 0 0 1 -47.13019,-40.94369 47.130637,40.944838 0 0 1 47.13019,-40.94554 47.130637,40.944838 0 0 1 9.60889,0.86827 z" /><ellipse
       style="opacity:1;fill:#ffffff;stroke:#000000;stroke-width:0.5;stroke-opacity:0;paint-order:stroke fill markers"
       id="path9"
       cx="1210.798"
       cy="636.95825"
       rx="26.171095"
       ry="25.786226" /><path
       style="opacity:1;fill:#ffffff;stroke:#000000;stroke-width:0.513887;stroke-opacity:0;paint-order:stroke fill markers"
       d="m 1319.9214,688.70521 15.8392,-25.95059 c 0,0 -18.9833,-21.29849 -51.5076,-13.05497 -32.5244,8.24352 -31.8455,34.38901 -31.8455,34.38901 h 38.6374 c 0,0 -6.8788,5.12759 1.9917,-3.26316 8.8706,-8.39074 26.8848,7.87971 26.8848,7.87971 z"
       id="path10" /><rect
       style="opacity:1;fill:#ffffff;stroke:#000000;stroke-width:0.484208;stroke-opacity:0;paint-order:stroke fill markers"
       id="rect10"
       width="37.652306"
       height="119.83215"
       x="920.93842"
       y="684.93549" /><rect
       style="fill:#ffffff;stroke:#000000;stroke-width:0.493597;stroke-opacity:0;paint-order:stroke fill markers"
       id="rect10-9"
       width="38.876232"
       height="120.60417"
       x="1001.8445"
       y="684.77417" /><path
       id="path12"
       style="opacity:1;fill:#ffffff;stroke:#000000;stroke-width:0.505641;stroke-opacity:0;paint-order:stroke fill markers"
       d="M 956.02539 802.40234 C 956.02718 802.42837 956.02917 802.45444 956.03125 802.48047 C 947.86971 802.35104 920.88281 802.62109 920.88281 802.62109 C 920.88314 819.19661 932.38988 834.51305 951.07031 842.80078 C 969.75104 851.08871 991.81341 851.08871 1010.4941 842.80078 C 1029.1746 834.51306 1040.6833 819.19662 1040.6836 802.62109 L 1003.5293 802.62109 L 1003.5293 805 L 1001.9336 805 C 1000.9417 810.51347 996.8171 815.42197 990.64258 818.25391 C 983.50174 821.52295 974.70334 821.52295 967.5625 818.25391 C 961.38868 815.42165 959.14412 810.51321 958.61914 805 L 958.50391 805 L 958.50391 802.8418 C 958.50234 802.76754 958.49326 802.69549 958.49219 802.62109 L 958.50391 802.62109 L 958.50391 802.40234 L 956.02539 802.40234 z " /><path
       style="opacity:0.92126;fill:#ffffff;stroke:#000000;stroke-width:0.489387;stroke-opacity:0;paint-order:stroke fill markers"
       d="m 1080.7859,769.34941 c 0,-2.50492 0.1408,-4.79308 0.4028,-6.88254 0.3143,-2.50712 0.803,-4.72818 1.432,-6.69439 1.0049,-3.14099 2.3678,-5.63162 3.9501,-7.59918 2.2538,-2.80263 4.9526,-4.54393 7.6952,-5.59173 2.0249,-0.77359 4.0736,-1.16917 5.9846,-1.33473 5.145,-0.44573 40.0163,20.60248 40.0163,20.60248 0,0 7.4466,3.78092 13.565,8.50754 4.1033,3.16991 7.0007,7.18873 8.9248,9.19731 8.3653,16.54559 8.1393,33.70917 -3.6027,47.41781 -13.5538,14.73803 -23.1054,17.02072 -34.541,18.34815 -12.4453,1.44463 -65.0197,-0.14256 -65.0197,-0.14256 l 0.2306,-18.21459 0.063,-4.97107 0.065,-5.10028 0.1949,-15.39883 c 0,0 71.0819,5.10804 69.9632,0.74904 -0.675,-2.62974 -23.383,-13.09561 -37.4094,-21.74916 -9.2234,-5.6903 -11.9142,-11.14327 -11.9142,-11.14327 z"
       id="path15"
       sodipodi:nodetypes="cssssscsssscccccsscc" /><path
       style="opacity:0.92126;fill:#ffffff;stroke:#000000;stroke-width:0.517323;stroke-opacity:0;paint-order:stroke fill markers"
       d="m 1150.7602,773.12333 c 0,2.9831 -0.1322,5.70806 -0.3779,8.19639 -0.295,2.98574 -0.7535,5.63079 -1.3437,7.97235 -0.9429,3.7406 -2.2218,6.70668 -3.7065,9.04985 -2.1147,3.33765 -4.647,5.41136 -7.2204,6.65918 -1.8999,0.92127 -3.8222,1.39236 -5.6154,1.58953 -4.8275,0.53082 -37.5474,-24.53546 -37.5474,-24.53546 0,0 -6.9872,-4.50269 -12.7281,-10.13162 -3.8501,-3.77504 -6.5689,-8.56105 -8.3741,-10.95305 -7.8493,-19.70412 -7.6372,-40.1442 3.3804,-56.46979 12.7175,-17.5515 21.6799,-20.26995 32.41,-21.85079 11.6774,-1.72041 55.1066,-3.64023 55.1066,-3.64023 l -0.2164,21.69172 -0.059,5.92003 -0.061,6.07392 -0.1829,18.33845 c 0,0 -60.795,-2.27316 -59.7452,2.91798 0.6333,3.13175 21.9404,15.59554 35.1014,25.90103 8.6543,6.77657 11.1791,13.27051 11.1791,13.27051 z"
       id="path15-7"
       sodipodi:nodetypes="cssssscsssscccccsscc"
       inkscape:transform-center-x="-6.9651794"
       inkscape:transform-center-y="-37.136745" /></g><g
     id="g2"
     style="fill:#ffffff;fill-opacity:1"><path
       style="fill:#ffffff;stroke:#ffffff;stroke-width:0.5;paint-order:stroke fill markers;stroke-opacity:1;fill-opacity:1"
       d="m 754.09308,342.51998 46.77485,46.77485 -615.31686,481.84524 -38.57341,-38.57341 z"
       id="path1" /><path
       style="fill:#ffffff;stroke:#fbfbfb;stroke-width:0.5;paint-order:stroke fill markers;stroke-opacity:1;fill-opacity:1"
       d="M 313.55895,417.38308 723.43168,882.40046 753.49442,852.33773 354.39498,382.11699 Z"
       id="path2" /></g></svg>
